# xmcd
#
# Track frame offsets:
#	150
#	13800
#	32687
#	55572
#	72168
#	89088
#	103445
#	117018
#	134371
#	150023
#	168941
#	183568
#	207666
#	222589
#	245962
#	269766
#	288739
#	307144
#	321528
#	340015
#
# Disc length: 4736 seconds
#
# Revision: 0
# Processed by: cddbd v1.5.2PL0 Copyright (c) Steve Scherf et al.
# Submitted via: audiograbber 1.83.01
#
DISCID=42127e14
DTITLE=Clube dos Namorados 3 - As 20 mais
DYEAR=1900
DGENRE=
TTITLE0=Give me your heart tonight - Shaking Steven
TTITLE1=Total Eclipse of The Heart - Bonnie Tyller
TTITLE2=Making Love - Air Supply
TTITLE3=I Dont Want - Nazareth
TTITLE4=You Werent in Love - Mick Fleetwwork
TTITLE5=Angelica e Ramone - Street Service
TTITLE6=Over You - Lane Brody
TTITLE7=Please Dont Go - KC and Sunshine Band
TTITLE8=Straigt Fron the Heart - Bryan Adans
TTITLE9=Lover Why - Century
TTITLE10=Hurt - Carly Simon
TTITLE11=Still Loving You - Skorpion
TTITLE12=Yes - Tim Moore
TTITLE13=Empty Garden - Elton John
TTITLE14=Listen to Your Heart - Roxxet
TTITLE15=Is This The End - Neww Edition
TTITLE16=Rebel in me - Jimmy Cliff
TTITLE17=Stuck on You - Leonel Richie
TTITLE18=Lonely is the Night - Air Supply 
TTITLE19=Drean On - Nazareth
EXTD=
EXTT0=
EXTT1=
EXTT2=
EXTT3=
EXTT4=
EXTT5=
EXTT6=
EXTT7=
EXTT8=
EXTT9=
EXTT10=
EXTT11=
EXTT12=
EXTT13=
EXTT14=
EXTT15=
EXTT16=
EXTT17=
EXTT18=
EXTT19=
PLAYORDER=
